#N canvas 597 23 841 768 10;
#X obj 267 122 dumpOSC 12345;
#X obj 263 193 print;
#X obj 343 176 route x y;
#X floatatom 344 212 5 0 0 0 - - -;
#X floatatom 395 213 5 0 0 0 - - -;
#X floatatom 443 214 5 0 0 0 - - -;
#X obj 352 62 cursor;
#X msg 361 39 bang;
#X obj 352 14 tgl 15 0 empty empty empty 17 7 0 10 -262144 -1 -1 1
1;
#X obj 352 86 route motion mousewheel button;
#X text 371 11 turn on to get mouse motion and buttons;
#X text 392 38 or bang to get the current mouse position;
#X floatatom 301 354 0 0 0 0 - - -;
#X obj 301 380 mtof;
#X obj 293 657 output~;
#X text 336 357 <-- choose a pitch;
#X obj 301 448 osc~;
#X obj 342 424 * 2;
#X obj 342 448 osc~;
#X obj 406 448 osc~;
#X obj 406 424 * 3;
#X obj 470 449 osc~;
#X obj 470 425 * 4;
#X obj 406 473 *~ 0.2;
#X obj 302 583 +~;
#X obj 343 553 *~;
#X obj 378 554 tgl 15 0 empty empty empty 0 -6 0 8 -262144 -1 -1 1
1;
#X obj 343 504 +~;
#X obj 343 528 +~;
#X msg 385 589 bang;
#X text 434 588 <-- click to graph;
#X text 529 423 frequencies of harmonics;
#X text 529 449 four oscillators;
#X text 533 475 adjust amplitudes;
#X text 378 527 add the three overtones together;
#X obj 377 658 tabwrite~ tab.01.07;
#X obj 342 473 *~ 0.1;
#X obj 470 473 *~ 0.5;
#X text 398 553 <-- overtones ON/OFF;
#X obj 342 254 / 30;
#X obj 340 278 + 50;
#X floatatom 577 491 5 0 0 0 - - -;
#X obj 521 289 * -1;
#X obj 341 300 * -1;
#X floatatom 367 328 5 0 0 0 - - -;
#X floatatom 481 367 5 0 0 0 - - -;
#X obj 462 336 + 140;
#X obj 99 617 clip;
#X obj 829 438 *~;
#X floatatom 829 381 0 0 0 0 - - -;
#X obj 917 418 line~;
#X floatatom 733 395 0 0 0 0 - - -;
#X obj 733 509 cos~;
#X obj 733 465 +~;
#X obj 829 406 osc~ 0;
#X obj 917 392 pack 0 50;
#X floatatom 917 339 0 0 0 0 - - -;
#X obj 917 366 / 100;
#X text 891 301 modulation index;
#X text 891 316 in hundredths;
#X text 730 352 carrier;
#X text 729 370 frequency;
#X text 814 357 frequency;
#X text 815 340 modulation;
#X obj 733 422 phasor~;
#X obj 818 520 tabwrite~ phase-out;
#X obj 818 547 tabwrite~ cos-out;
#X msg 818 495 bang;
#X text 865 494 <-- graph them;
#X obj 731 570 output~;
#X obj 732 544 hip~;
#X connect 0 0 1 0;
#X connect 0 0 2 0;
#X connect 2 0 3 0;
#X connect 2 1 4 0;
#X connect 2 2 5 0;
#X connect 4 0 39 0;
#X connect 6 0 9 0;
#X connect 7 0 6 0;
#X connect 8 0 6 0;
#X connect 9 0 2 0;
#X connect 12 0 13 0;
#X connect 13 0 16 0;
#X connect 13 0 17 0;
#X connect 13 0 20 0;
#X connect 13 0 22 0;
#X connect 16 0 24 0;
#X connect 17 0 18 0;
#X connect 18 0 36 0;
#X connect 19 0 23 0;
#X connect 20 0 19 0;
#X connect 21 0 37 0;
#X connect 22 0 21 0;
#X connect 24 0 35 0;
#X connect 25 0 24 1;
#X connect 26 0 25 1;
#X connect 27 0 28 0;
#X connect 28 0 25 0;
#X connect 29 0 35 0;
#X connect 36 0 27 0;
#X connect 39 0 40 0;
#X connect 40 0 43 0;
#X connect 41 0 28 1;
#X connect 41 0 27 1;
#X connect 41 0 25 1;
#X connect 43 0 44 0;
#X connect 44 0 46 0;
#X connect 45 0 12 0;
#X connect 46 0 45 0;
#X connect 48 0 53 1;
#X connect 49 0 54 0;
#X connect 50 0 48 1;
#X connect 51 0 64 0;
#X connect 52 0 66 0;
#X connect 52 0 70 0;
#X connect 53 0 52 0;
#X connect 53 0 65 0;
#X connect 54 0 48 0;
#X connect 55 0 50 0;
#X connect 56 0 57 0;
#X connect 57 0 55 0;
#X connect 64 0 53 0;
#X connect 67 0 65 0;
#X connect 67 0 66 0;
#X connect 70 0 69 0;
#X connect 70 0 69 1;
