#N canvas 284 49 841 768 10;
#X obj 267 122 dumpOSC 12345;
#X obj 263 193 print;
#X obj 343 176 route x y;
#X floatatom 344 212 5 0 0 0 - - -;
#X floatatom 395 213 5 0 0 0 - - -;
#X floatatom 443 214 5 0 0 0 - - -;
#X obj 352 62 cursor;
#X msg 361 39 bang;
#X obj 352 14 tgl 15 0 empty empty empty 17 7 0 10 -262144 -1 -1 1
1;
#X obj 352 86 route motion mousewheel button;
#X text 371 11 turn on to get mouse motion and buttons;
#X text 392 38 or bang to get the current mouse position;
#X obj 444 255 / 30;
#X obj 442 279 + 50;
#X obj 443 301 * -1;
#X floatatom 424 329 5 0 0 0 - - -;
#X obj 423 348 + 140;
#X obj 368 497 *~;
#X floatatom 368 440 0 0 0 0 - - -;
#X obj 456 477 line~;
#X floatatom 272 454 0 0 0 0 - - -;
#X obj 272 568 cos~;
#X obj 272 524 +~;
#X obj 368 465 osc~ 0;
#X obj 456 451 pack 0 50;
#X obj 456 425 / 100;
#X text 269 411 carrier;
#X text 268 429 frequency;
#X text 353 416 frequency;
#X text 354 399 modulation;
#X obj 272 481 phasor~;
#X obj 357 579 tabwrite~ phase-out;
#X obj 357 606 tabwrite~ cos-out;
#X msg 357 554 bang;
#X text 404 553 <-- graph them;
#X obj 270 629 output~;
#X obj 271 603 hip~;
#X obj 332 246 / 10;
#X obj 331 265 + 50;
#X obj 331 286 * -1;
#X floatatom 332 332 5 0 0 0 - - -;
#X obj 330 309 + 250;
#X connect 0 0 1 0;
#X connect 0 0 2 0;
#X connect 2 0 3 0;
#X connect 2 1 4 0;
#X connect 2 2 5 0;
#X connect 3 0 37 0;
#X connect 4 0 12 0;
#X connect 6 0 9 0;
#X connect 7 0 6 0;
#X connect 8 0 6 0;
#X connect 9 0 2 0;
#X connect 12 0 13 0;
#X connect 13 0 14 0;
#X connect 14 0 15 0;
#X connect 15 0 16 0;
#X connect 16 0 18 0;
#X connect 17 0 22 1;
#X connect 18 0 23 0;
#X connect 19 0 17 1;
#X connect 20 0 30 0;
#X connect 21 0 32 0;
#X connect 21 0 36 0;
#X connect 22 0 21 0;
#X connect 22 0 31 0;
#X connect 23 0 17 0;
#X connect 24 0 19 0;
#X connect 25 0 24 0;
#X connect 30 0 22 0;
#X connect 33 0 31 0;
#X connect 33 0 32 0;
#X connect 36 0 35 0;
#X connect 36 0 35 1;
#X connect 37 0 38 0;
#X connect 38 0 39 0;
#X connect 39 0 41 0;
#X connect 40 0 25 0;
#X connect 41 0 40 0;
