#N canvas 272 23 892 772 10;
#X text 476 22 CutOff;
#X text 537 22 Reso;
#X text 591 20 EnvMod;
#X text 479 380 Decay;
#X obj 350 317 loadbang;
#X obj 581 396 vsl 25 128 0 127 0 0 empty empty empty 0 -8 0 8 -262144
-1 -1 0 1;
#X msg 581 552 glide \$1;
#X msg 714 449 tune \$1;
#X floatatom 714 431 5 0 0 0 - - -;
#X obj 714 471 s bass_ctl;
#X msg 714 408 440;
#X obj 8 80 r bass_ctl;
#X text 753 431 Tune;
#X text 575 381 Glide;
#X obj 487 51 vsl 25 128 0 1 0 0 empty empty empty 0 -8 0 8 -262144
-1 -1 9558 1;
#X obj 544 49 vsl 25 128 -1 2 0 0 empty empty empty 0 -8 0 8 -262144
-1 -1 7620 1;
#X obj 601 52 vsl 25 128 -1 2 0 0 empty empty empty 0 -8 0 8 -262144
-1 -1 7197 1;
#X obj 488 395 vsl 25 128 -1 1 0 0 empty empty empty 0 -8 0 8 -262144
-1 -1 6985 1;
#X obj 534 395 vsl 25 128 0 1 0 0 empty empty empty 0 -8 0 8 -262144
-1 -1 6350 1;
#X msg 350 352 0.5;
#X msg 396 352 0.8;
#X msg 442 352 0.7;
#X msg 488 352 0.1;
#X msg 534 352 0.5;
#X text 713 393 VCO Tuning:;
#X msg 350 535 cutoff \$1;
#X msg 396 555 reso \$1;
#X obj 442 591 s bass_ctl;
#X msg 442 531 envmod \$1;
#X msg 488 551 decay \$1;
#X msg 534 531 pw \$1;
#X msg 15 111 reset;
#X text 59 100 Emergency Reset;
#X text 59 113 in case the filter;
#X text 59 125 goes mad;
#X text 532 370 Rect;
#X text 529 380 Width;
#X obj 581 531 / 127;
#X msg 221 308 pitch \$1;
#X obj 221 267 - 64;
#X obj 221 327 s bass_ctl;
#X obj 221 286 / 16;
#X msg 43 178 64;
#X obj 254 268 nbx 5 14 -1e+37 1e+37 0 0 empty empty empty 0 -6 0 10
-262144 -1 -1 20.4008 256;
#X text 401 22 Pitch Bend;
#X obj 148 849 miniseq;
#X obj 8 148 bassemu~;
#X obj 422 50 vsl 25 128 -300 450 0 0 empty empty empty 0 -8 0 8 -262144
-1 -1 11691 1;
#X obj 285 52 vsl 25 128 0.01 1 0 0 empty empty empty 0 -8 0 8 -262144
-1 -1 0 1;
#X obj 301 383 send l;
#X text 280 22 Level;
#X obj 352 52 vsl 25 128 0 1 0 0 empty empty empty 0 -8 0 8 -262144
-1 -1 0 1;
#X text 341 20 Panning;
#X obj 243 384 send pan;
#X obj 186 29 tgl 30 0 THIS_IS_HERE_TO_GET_RID_OF_THE_OUTLET \$0-dsp-toggle
dsp 2 9 1 9 -262144 -195568 -33289 0 1;
#N canvas 366 514 482 356 dsp 0;
#X obj 11 7 inlet;
#X obj 92 226 select 0 1;
#X msg 125 248 6;
#X obj 92 57 route dsp;
#X obj 92 36 receive pd;
#X obj 206 138 loadbang;
#X msg 11 220 dsp \$1;
#X obj 11 245 send pd;
#X msg 206 278 set \$1;
#X obj 206 174 value GLOBAL_PDDP_DSP;
#X msg 109 278 color \$1 20 12;
#X obj 180 309 send \$0-dsp-toggle;
#X obj 92 115 change;
#X msg 92 247 0;
#X connect 0 0 6 0;
#X connect 0 0 12 0;
#X connect 1 0 13 0;
#X connect 1 1 2 0;
#X connect 2 0 10 0;
#X connect 3 0 12 0;
#X connect 4 0 3 0;
#X connect 5 0 9 0;
#X connect 6 0 7 0;
#X connect 8 0 11 0;
#X connect 9 0 8 0;
#X connect 9 0 1 0;
#X connect 10 0 11 0;
#X connect 12 0 8 0;
#X connect 12 0 1 0;
#X connect 12 0 9 0;
#X connect 13 0 10 0;
#X restore 32 497 pd dsp logic;
#X obj 36 622 line~;
#X obj 4 675 *~;
#X obj 24 705 dac~;
#X text 46 392 audio in;
#X obj 66 674 *~;
#X obj 19 415 hip~ 3;
#X obj 81 415 hip~ 3;
#X obj -38 637 send pd;
#X msg -38 616 dsp 1;
#X obj 36 601 pack 0 50;
#X msg 36 566 0;
#X obj 36 543 moses 0.011;
#X text 125 416 filter out DC;
#X text 103 600 comment;
#X obj -24 342 r l;
#X obj 110 -73 print;
#X obj 190 -90 route x y;
#X floatatom 191 -54 5 0 0 0 - - -;
#X floatatom 242 -53 5 0 0 0 - - -;
#X floatatom 290 -52 5 0 0 0 - - -;
#X obj 412 -212 cursor;
#X msg 421 -235 bang;
#X obj 412 -260 tgl 15 0 empty empty empty 17 7 0 10 -262144 -1 -1
1 1;
#X obj 412 -188 route motion mousewheel button;
#X text 431 -263 turn on to get mouse motion and buttons;
#X text 452 -236 or bang to get the current mouse position;
#X floatatom 419 -4 5 0 0 0 - - -;
#X obj 419 -69 * -1;
#X obj 486 -52 / 1439;
#X floatatom 487 -10 5 0 0 0 - - -;
#X obj 485 -74 * -1;
#X obj 486 -33 + 1;
#X obj 419 -48 / 1.25;
#X obj 418 -26 + 420;
#X obj 114 -144 dumpOSC 12345;
#X connect 4 0 19 0;
#X connect 4 0 20 0;
#X connect 4 0 21 0;
#X connect 4 0 22 0;
#X connect 4 0 23 0;
#X connect 4 0 10 0;
#X connect 4 0 42 0;
#X connect 5 0 37 0;
#X connect 6 0 27 0;
#X connect 7 0 9 0;
#X connect 8 0 7 0;
#X connect 10 0 8 0;
#X connect 11 0 46 0;
#X connect 14 0 25 0;
#X connect 15 0 26 0;
#X connect 16 0 28 0;
#X connect 17 0 29 0;
#X connect 18 0 30 0;
#X connect 19 0 14 0;
#X connect 20 0 15 0;
#X connect 21 0 16 0;
#X connect 22 0 17 0;
#X connect 23 0 18 0;
#X connect 25 0 27 0;
#X connect 26 0 27 0;
#X connect 28 0 27 0;
#X connect 29 0 27 0;
#X connect 30 0 27 0;
#X connect 31 0 46 0;
#X connect 37 0 6 0;
#X connect 38 0 40 0;
#X connect 39 0 41 0;
#X connect 41 0 38 0;
#X connect 41 0 43 0;
#X connect 45 0 46 0;
#X connect 46 0 61 0;
#X connect 46 0 62 0;
#X connect 47 0 39 0;
#X connect 48 0 49 0;
#X connect 51 0 53 0;
#X connect 54 0 55 0;
#X connect 56 0 60 0;
#X connect 56 0 57 0;
#X connect 57 0 58 0;
#X connect 60 0 58 1;
#X connect 61 0 57 1;
#X connect 62 0 60 1;
#X connect 64 0 63 0;
#X connect 65 0 56 0;
#X connect 66 0 65 0;
#X connect 67 0 66 0;
#X connect 67 1 65 0;
#X connect 70 0 67 0;
#X connect 70 0 64 0;
#X connect 72 0 73 0;
#X connect 72 1 74 0;
#X connect 72 2 75 0;
#X connect 73 0 86 0;
#X connect 74 0 83 0;
#X connect 76 0 79 0;
#X connect 77 0 76 0;
#X connect 78 0 76 0;
#X connect 79 0 72 0;
#X connect 82 0 47 0;
#X connect 83 0 88 0;
#X connect 84 0 87 0;
#X connect 85 0 14 0;
#X connect 86 0 84 0;
#X connect 87 0 85 0;
#X connect 88 0 89 0;
#X connect 89 0 82 0;
#X connect 90 0 71 0;
#X connect 90 0 72 0;
