#N canvas 420 104 725 535 10;
#X text 481 69 CutOff;
#X text 542 69 Reso;
#X text 596 67 EnvMod;
#X text 347 373 Decay;
#X obj 218 310 loadbang;
#X obj 449 389 vsl 25 128 0 127 0 0 empty empty empty 0 -8 0 8 -262144
-1 -1 0 1;
#X msg 449 545 glide \$1;
#X msg 582 442 tune \$1;
#X floatatom 582 424 5 0 0 0 - - -;
#X obj 582 464 s bass_ctl;
#X msg 582 401 440;
#X obj 8 80 r bass_ctl;
#X text 621 424 Tune;
#X text 443 374 Glide;
#X obj 489 95 vsl 25 128 0 1 0 0 empty empty empty 0 -8 0 8 -262144
-1 -1 8400 1;
#X obj 546 93 vsl 25 128 -1 2 0 0 empty empty empty 0 -8 0 8 -262144
-1 -1 7200 1;
#X obj 603 96 vsl 25 128 -1 2 0 0 empty empty empty 0 -8 0 8 -262144
-1 -1 7900 1;
#X obj 356 388 vsl 25 128 -1 1 0 0 empty empty empty 0 -8 0 8 -262144
-1 -1 6985 1;
#X obj 402 388 vsl 25 128 0 1 0 0 empty empty empty 0 -8 0 8 -262144
-1 -1 6350 1;
#X msg 218 345 0.5;
#X msg 264 345 0.8;
#X msg 310 345 0.7;
#X msg 356 345 0.1;
#X msg 402 345 0.5;
#X text 581 386 VCO Tuning:;
#X msg 218 528 cutoff \$1;
#X msg 264 548 reso \$1;
#X obj 310 584 s bass_ctl;
#X msg 310 524 envmod \$1;
#X msg 356 544 decay \$1;
#X msg 402 524 pw \$1;
#X msg 15 111 reset;
#X text 59 100 Emergency Reset;
#X text 59 113 in case the filter;
#X text 59 125 goes mad;
#X text 400 363 Rect;
#X text 397 373 Width;
#X obj 449 524 / 127;
#X msg 26 329 pitch \$1;
#X obj 26 288 - 64;
#X obj 26 348 s bass_ctl;
#X obj 26 307 / 16;
#X msg 43 178 64;
#X obj 59 289 nbx 5 14 -1e+37 1e+37 0 0 empty empty empty 0 -6 0 10
-262144 -1 -1 -1.31791 256;
#X text 406 69 Pitch Bend;
#X obj 3 712 miniseq;
#X obj 8 148 bassemu~;
#X obj 424 94 vsl 25 128 -300 370 0 0 empty empty empty 0 -8 0 8 -262144
-1 -1 6500 1;
#X obj -22 215 output~;
#X obj 287 96 vsl 25 128 0.01 1 0 0 empty empty empty 0 -8 0 8 -262144
-1 -1 12700 1;
#X obj 169 376 send l;
#X text 285 69 Level;
#X obj 354 96 vsl 25 128 0 1 0 0 empty empty empty 0 -8 0 8 -262144
-1 -1 12700 1;
#X text 346 67 Panning;
#X obj 111 377 send pan;
#X connect 4 0 19 0;
#X connect 4 0 20 0;
#X connect 4 0 21 0;
#X connect 4 0 22 0;
#X connect 4 0 23 0;
#X connect 4 0 10 0;
#X connect 4 0 42 0;
#X connect 5 0 37 0;
#X connect 6 0 27 0;
#X connect 7 0 9 0;
#X connect 8 0 7 0;
#X connect 10 0 8 0;
#X connect 11 0 46 0;
#X connect 14 0 25 0;
#X connect 15 0 26 0;
#X connect 16 0 28 0;
#X connect 17 0 29 0;
#X connect 18 0 30 0;
#X connect 19 0 14 0;
#X connect 20 0 15 0;
#X connect 21 0 16 0;
#X connect 22 0 17 0;
#X connect 23 0 18 0;
#X connect 25 0 27 0;
#X connect 26 0 27 0;
#X connect 28 0 27 0;
#X connect 29 0 27 0;
#X connect 30 0 27 0;
#X connect 31 0 46 0;
#X connect 37 0 6 0;
#X connect 38 0 40 0;
#X connect 39 0 41 0;
#X connect 41 0 38 0;
#X connect 41 0 43 0;
#X connect 42 0 47 0;
#X connect 45 0 46 0;
#X connect 46 0 48 1;
#X connect 46 0 48 0;
#X connect 47 0 39 0;
#X connect 49 0 50 0;
#X connect 52 0 54 0;
