#N canvas 306 49 737 627 10;
#X text 610 73 CutOff;
#X text 671 73 Reso;
#X text 725 71 EnvMod;
#X text 479 380 Decay;
#X obj 350 317 loadbang;
#X obj 581 396 vsl 25 128 0 127 0 0 empty empty empty 0 -8 0 8 -262144
-1 -1 0 1;
#X msg 581 552 glide \$1;
#X msg 714 449 tune \$1;
#X floatatom 714 431 5 0 0 0 - - -;
#X obj 714 471 s bass_ctl;
#X msg 714 408 440;
#X obj 8 80 r bass_ctl;
#X text 753 431 Tune;
#X text 575 381 Glide;
#X obj 621 102 vsl 25 128 0 1 0 0 empty empty empty 0 -8 0 8 -262144
-1 -1 6350 1;
#X obj 678 100 vsl 25 128 -1 2 0 0 empty empty empty 0 -8 0 8 -262144
-1 -1 7620 1;
#X obj 735 103 vsl 25 128 -1 2 0 0 empty empty empty 0 -8 0 8 -262144
-1 -1 7197 1;
#X obj 488 395 vsl 25 128 -1 1 0 0 empty empty empty 0 -8 0 8 -262144
-1 -1 6985 1;
#X obj 534 395 vsl 25 128 0 1 0 0 empty empty empty 0 -8 0 8 -262144
-1 -1 6350 1;
#X msg 350 352 0.5;
#X msg 396 352 0.8;
#X msg 442 352 0.7;
#X msg 488 352 0.1;
#X msg 534 352 0.5;
#X text 713 393 VCO Tuning:;
#X msg 350 535 cutoff \$1;
#X msg 396 555 reso \$1;
#X obj 442 591 s bass_ctl;
#X msg 442 531 envmod \$1;
#X msg 488 551 decay \$1;
#X msg 534 531 pw \$1;
#X msg 15 111 reset;
#X text 59 100 Emergency Reset;
#X text 59 113 in case the filter;
#X text 59 125 goes mad;
#X text 532 370 Rect;
#X text 529 380 Width;
#X obj 581 531 / 127;
#X msg 221 308 pitch \$1;
#X obj 221 267 - 64;
#X obj 221 327 s bass_ctl;
#X obj 221 286 / 16;
#X msg 43 178 64;
#X obj 254 268 nbx 5 14 -1e+37 1e+37 0 0 empty empty empty 0 -6 0 10
-262144 -1 -1 0.000984192 256;
#X text 535 73 Pitch Bend;
#X obj 135 719 miniseq;
#X obj 8 148 bassemu~;
#X obj 556 101 vsl 25 128 -300 370 0 0 empty empty empty 0 -8 0 8 -262144
-1 -1 6900 1;
#X obj 419 103 vsl 25 128 0.01 1 0 0 empty empty empty 0 -8 0 8 -262144
-1 -1 0 1;
#X obj 301 383 send l;
#X text 414 73 Level;
#X obj 486 103 vsl 25 128 0 1 0 0 empty empty empty 0 -8 0 8 -262144
-1 -1 0 1;
#X text 475 71 Panning;
#X obj 243 384 send pan;
#X obj -37 445 hsl 42 23 0.01 1 1 0 \$0-v \$0-v volume 7 13 1 9 -245500
-13381 -1 1900 0;
#X obj 7 445 tgl 18 0 THIS_IS_HERE_TO_GET_RID_OF_THE_OUTLET \$0-dsp-toggle
dsp 2 9 1 9 -225271 -195568 -33289 1 1;
#N canvas 366 514 482 356 dsp 0;
#X obj 11 7 inlet;
#X obj 92 226 select 0 1;
#X msg 125 248 6;
#X obj 92 57 route dsp;
#X obj 92 36 receive pd;
#X obj 206 138 loadbang;
#X msg 11 220 dsp \$1;
#X obj 11 245 send pd;
#X msg 206 278 set \$1;
#X obj 206 174 value GLOBAL_PDDP_DSP;
#X msg 109 278 color \$1 20 12;
#X obj 180 309 send \$0-dsp-toggle;
#X obj 92 115 change;
#X msg 92 247 0;
#X connect 0 0 6 0;
#X connect 0 0 12 0;
#X connect 1 0 13 0;
#X connect 1 1 2 0;
#X connect 2 0 10 0;
#X connect 3 0 12 0;
#X connect 4 0 3 0;
#X connect 5 0 9 0;
#X connect 6 0 7 0;
#X connect 8 0 11 0;
#X connect 9 0 8 0;
#X connect 9 0 1 0;
#X connect 10 0 11 0;
#X connect 12 0 8 0;
#X connect 12 0 1 0;
#X connect 12 0 9 0;
#X connect 13 0 10 0;
#X restore 32 497 pd dsp logic;
#X obj 36 622 line~;
#X obj 4 675 *~;
#X obj 24 705 dac~;
#X text 46 392 audio in;
#X obj 66 674 *~;
#X obj 19 415 hip~ 3;
#X obj 81 415 hip~ 3;
#X obj -38 637 send pd;
#X msg -38 616 dsp 1;
#X obj 36 601 pack 0 50;
#X msg 36 566 0;
#X obj 36 543 moses 0.011;
#X text 125 416 filter out DC;
#X text 103 600 comment;
#X connect 4 0 19 0;
#X connect 4 0 20 0;
#X connect 4 0 21 0;
#X connect 4 0 22 0;
#X connect 4 0 23 0;
#X connect 4 0 10 0;
#X connect 4 0 42 0;
#X connect 5 0 37 0;
#X connect 6 0 27 0;
#X connect 7 0 9 0;
#X connect 8 0 7 0;
#X connect 10 0 8 0;
#X connect 11 0 46 0;
#X connect 14 0 25 0;
#X connect 15 0 26 0;
#X connect 16 0 28 0;
#X connect 17 0 29 0;
#X connect 18 0 30 0;
#X connect 19 0 14 0;
#X connect 20 0 15 0;
#X connect 21 0 16 0;
#X connect 22 0 17 0;
#X connect 23 0 18 0;
#X connect 25 0 27 0;
#X connect 26 0 27 0;
#X connect 28 0 27 0;
#X connect 29 0 27 0;
#X connect 30 0 27 0;
#X connect 31 0 46 0;
#X connect 37 0 6 0;
#X connect 38 0 40 0;
#X connect 39 0 41 0;
#X connect 41 0 38 0;
#X connect 41 0 43 0;
#X connect 42 0 47 0;
#X connect 45 0 46 0;
#X connect 46 0 62 0;
#X connect 46 0 63 0;
#X connect 47 0 39 0;
#X connect 48 0 49 0;
#X connect 51 0 53 0;
#X connect 54 0 65 0;
#X connect 54 0 68 0;
#X connect 55 0 56 0;
#X connect 57 0 61 0;
#X connect 57 0 58 0;
#X connect 58 0 59 0;
#X connect 61 0 59 1;
#X connect 62 0 58 1;
#X connect 63 0 61 1;
#X connect 65 0 64 0;
#X connect 66 0 57 0;
#X connect 67 0 66 0;
#X connect 68 0 67 0;
#X connect 68 1 66 0;
